<svg width="72" height="58" viewBox="0 0 72 58" fill="none" xmlns="http://www.w3.org/2000/svg">
<g id="&#240;&#159;&#166;&#134; icon &#34;twitter brand&#34;">
<path id="Vector" d="M63.5189 9.46501C66.6043 7.66514 68.9132 4.83103 70.014 1.49183C67.1147 3.17043 63.9422 4.35291 60.6345 4.98808C56.0483 0.254312 48.7819 -0.897701 42.8957 2.1758C37.0095 5.2493 33.9606 11.7874 35.4527 18.1368C23.5764 17.555 12.5116 12.081 5.01157 3.07707C1.09745 9.66458 3.09764 18.0857 9.58257 22.3215C7.23756 22.248 4.94452 21.6283 2.89473 20.5146V20.696C2.89608 27.5578 7.85251 33.4689 14.7456 34.8288C12.5704 35.4061 10.2889 35.4911 8.07497 35.0773C10.0135 40.9457 15.5564 44.9658 21.874 45.0857C16.6416 49.0928 10.1797 51.2661 3.52807 51.2554C2.34907 51.2571 1.17101 51.1909 0 51.0572C6.75458 55.2924 14.6161 57.5402 22.645 57.5325C33.8153 57.6074 44.5499 53.3105 52.4483 45.603C60.3467 37.8954 64.7497 27.4205 64.672 16.5213C64.672 15.8966 64.6572 15.2753 64.6272 14.6573C67.5202 12.6173 70.0167 10.0902 72 7.19464C69.3049 8.36025 66.4463 9.12553 63.5189 9.46501Z" fill="#F7F7FF" fill-opacity="0.88"/>
</g>
</svg>
