<svg width="60" height="60" viewBox="0 0 60 60" fill="none" xmlns="http://www.w3.org/2000/svg">
<g id="&#240;&#159;&#166;&#134; icon &#34;instagram brand&#34;">
<path id="Vector" d="M29.9834 60C21.7878 60 20.8217 59.9568 17.6235 59.817C15.1295 59.7352 12.6677 59.2289 10.3442 58.32C6.32417 56.7578 3.14538 53.5825 1.58245 49.5675C0.707305 47.2389 0.235269 44.7788 0.186562 42.2921C-2.48214e-08 39.1051 0 38.0605 0 29.9401C0 21.7332 0.0433091 20.7751 0.186562 17.5981C0.236335 15.1149 0.708338 12.6581 1.58245 10.3327C3.14368 6.31248 6.32763 3.13433 10.3542 1.57685C12.6818 0.699301 15.1427 0.226713 17.6302 0.17964C20.8117 -3.34607e-07 21.8578 0 29.9834 0C38.2455 0 39.195 0.0432465 42.3432 0.17964C44.8368 0.227112 47.3044 0.699634 49.6391 1.57685C53.6645 3.13609 56.8478 6.31364 58.4109 10.3327C59.3007 12.6919 59.7751 15.1872 59.8134 17.7079C60 20.8949 60 21.9362 60 30.0532C60 38.1703 59.9534 39.2349 59.8134 42.3852C59.7638 44.8743 59.2904 47.3367 58.4142 49.6673C56.8471 53.685 53.6635 56.8616 49.6391 58.4232C47.3078 59.2954 44.8455 59.7668 42.3565 59.817C39.175 60 38.1322 60 29.9834 60ZM29.8702 5.26613C21.7212 5.26613 20.875 5.30606 17.6935 5.4491C15.7945 5.47425 13.9138 5.82418 12.1332 6.4837C9.50389 7.48839 7.42329 9.55755 6.40642 12.179C5.74086 13.9764 5.39036 15.8749 5.37033 17.7911C5.19377 21.0146 5.19377 21.8596 5.19377 29.9401C5.19377 37.9242 5.22375 38.8922 5.37033 42.0958C5.40018 43.9927 5.75046 45.8709 6.40642 47.6514C7.42479 50.2711 9.50503 52.3387 12.1332 53.3433C13.9126 54.0073 15.794 54.3573 17.6935 54.3779C20.9183 54.5642 21.7678 54.5642 29.8702 54.5642C38.0423 54.5642 38.8885 54.5243 42.0434 54.3779C43.9436 54.355 45.8256 54.005 47.6069 53.3433C50.2201 52.33 52.2873 50.2671 53.3037 47.658C53.968 45.8593 54.3182 43.9597 54.3398 42.0426H54.3765C54.5197 38.8623 54.5197 38.014 54.5197 29.8869C54.5197 21.7598 54.4831 20.9049 54.3398 17.7279C54.3098 15.8332 53.9594 13.9572 53.3037 12.179C52.2896 9.56613 50.2221 7.49933 47.6069 6.4837C45.8259 5.82086 43.9436 5.47083 42.0434 5.4491C38.8218 5.26613 37.979 5.26613 29.8702 5.26613ZM29.9834 45.3061C23.7532 45.3101 18.1346 41.5659 15.7474 35.82C13.3602 30.0739 14.6748 23.4574 19.0781 19.0568C23.4814 14.656 30.106 13.3376 35.8625 15.7164C41.6189 18.0951 45.3732 23.7026 45.3748 29.9235C45.3655 38.4102 38.482 45.2894 29.9834 45.3061ZM29.9834 19.9368C24.4635 19.9368 19.9888 24.4052 19.9888 29.9168C19.9888 35.4288 24.4635 39.8969 29.9834 39.8969C35.503 39.8969 39.9778 35.4288 39.9778 29.9168C39.9649 24.4102 35.4977 19.9496 29.9834 19.9368ZM45.9745 17.5649C43.9936 17.5576 42.3928 15.9501 42.3965 13.9721C42.4002 11.9941 44.0069 10.3926 45.9878 10.3926C47.9684 10.3926 49.5752 11.9941 49.5792 13.9721C49.5798 14.9264 49.2 15.8418 48.5237 16.5159C47.8475 17.1901 46.93 17.5675 45.9745 17.5649Z" fill="#F7F7FF" fill-opacity="0.88"/>
</g>
</svg>
