<svg width="60" height="60" viewBox="0 0 60 60" fill="none" xmlns="http://www.w3.org/2000/svg">
<g id="&#240;&#159;&#166;&#134; icon &#34;facebook brand&#34;">
<path id="Vector" d="M0 30.1805C0.00350987 45.0296 10.7348 57.6731 25.3102 60V38.9039H17.6994V30.1805H25.3192V23.54C24.9785 20.3933 26.0467 17.2573 28.2339 14.9824C30.4212 12.7075 33.5008 11.5295 36.6378 11.7679C38.8893 11.8045 41.135 12.0063 43.3576 12.3716V19.794H39.5657C38.2602 19.622 36.9477 20.0558 35.998 20.9733C35.0482 21.8907 34.564 23.1925 34.6819 24.5118V30.1805H42.9946L41.6657 38.9069H34.6819V60C50.4445 57.4935 61.4979 43.0084 59.8345 27.0386C58.1708 11.0687 44.3722 -0.795203 28.4355 0.0416695C12.4986 0.878542 0.00254991 14.1232 0 30.1805Z" fill="#F7F7FF" fill-opacity="0.88"/>
</g>
</svg>
